<?xml version="1.0" standalone="no"?>
<!DOCTYPE svg PUBLIC "-//W3C//DTD SVG 20010904//EN"
 "http://www.w3.org/TR/2001/REC-SVG-20010904/DTD/svg10.dtd">
<svg version="1.0" xmlns="http://www.w3.org/2000/svg"
 width="1024.000000pt" height="1024.000000pt" viewBox="0 0 1024.000000 1024.000000"
 preserveAspectRatio="xMidYMid meet">
<metadata>
Created by potrace 1.11, written by Peter Selinger 2001-2013
</metadata>
<g transform="translate(0.000000,1024.000000) scale(0.100000,-0.100000)"
fill="#000000" stroke="none">
<path d="M8080 9265 c-178 -34 -342 -116 -476 -237 -53 -49 -295 -320 -579
-648 -101 -117 -239 -275 -244 -280 -4 -3 -35 -39 -71 -80 -36 -41 -67 -77
-70 -80 -3 -3 -34 -39 -70 -80 -36 -41 -67 -77 -70 -80 -3 -3 -34 -39 -70 -80
-36 -41 -67 -77 -70 -80 -3 -3 -34 -39 -70 -80 -36 -41 -67 -77 -70 -80 -3 -3
-34 -39 -70 -80 -36 -41 -67 -77 -70 -80 -3 -3 -35 -39 -70 -80 -36 -41 -67
-77 -71 -80 -3 -3 -70 -79 -148 -170 -79 -91 -158 -181 -175 -200 -17 -19
-143 -163 -280 -320 -286 -328 -339 -388 -456 -520 -47 -53 -96 -110 -110
-126 -43 -50 -523 -597 -551 -629 -15 -16 -269 -307 -564 -645 -296 -338 -554
-633 -574 -655 -20 -22 -65 -74 -101 -115 -35 -41 -67 -77 -70 -80 -3 -3 -34
-39 -70 -80 -35 -41 -67 -77 -70 -80 -3 -3 -34 -39 -70 -80 -36 -41 -67 -77
-70 -80 -3 -3 -34 -39 -70 -80 -36 -41 -67 -77 -70 -80 -3 -3 -34 -39 -70 -80
-36 -41 -79 -91 -96 -110 -84 -94 -294 -335 -354 -405 -41 -48 -75 -86 -252
-287 l-59 -67 -52 16 c-63 19 -222 21 -269 3 -179 -67 -294 -190 -334 -358
-26 -112 -13 -209 46 -328 24 -50 77 -109 287 -324 142 -144 283 -279 313
-300 86 -58 160 -80 271 -80 145 0 243 43 342 149 69 75 104 147 122 247 12
67 12 90 0 154 -8 41 -17 84 -20 96 -5 17 8 34 72 90 43 38 80 71 83 74 3 3
43 39 90 80 47 41 87 77 90 80 11 11 110 99 180 160 41 36 95 83 120 106 25
22 65 58 89 80 25 21 72 64 106 94 34 30 115 102 180 160 65 58 146 130 180
160 69 62 104 93 225 200 47 41 87 77 90 80 7 8 273 244 360 320 41 36 100 88
130 116 30 27 100 90 155 139 55 48 116 102 135 119 19 17 73 65 120 106 47
41 87 77 90 80 3 3 43 39 90 80 47 41 87 77 90 80 3 3 43 39 90 80 47 41 87
77 90 80 3 3 70 64 150 134 171 152 287 255 350 312 25 22 60 54 79 70 19 16
39 34 45 39 6 6 49 44 96 85 47 41 87 77 90 80 3 3 43 39 90 80 47 41 92 82
100 90 8 8 49 44 90 80 41 36 82 72 90 80 8 8 53 49 100 90 47 41 87 77 90 80
3 3 43 39 90 80 47 41 87 77 90 80 3 3 43 39 90 80 47 41 87 77 90 80 3 3 43
39 90 80 161 142 353 313 360 320 3 3 25 23 50 44 25 22 83 74 130 116 47 42
105 94 130 116 25 21 47 41 50 44 3 3 43 39 90 80 47 41 87 77 90 80 3 3 43
39 90 80 47 41 87 77 90 80 3 3 43 39 90 80 47 41 90 79 96 85 6 5 64 57 130
115 65 58 145 130 179 160 70 63 106 95 225 200 233 206 321 307 389 445 70
142 101 276 101 430 0 216 -67 414 -198 590 -60 80 -229 250 -309 313 -55 42
-213 124 -283 146 -145 45 -321 57 -460 31z m370 -348 c134 -50 224 -111 333
-226 58 -61 147 -180 147 -196 0 -3 9 -24 19 -48 27 -59 30 -73 47 -157 18
-94 18 -137 0 -225 -43 -214 -102 -306 -316 -495 -47 -41 -87 -77 -90 -80 -3
-3 -43 -39 -90 -80 -47 -41 -87 -77 -90 -80 -3 -3 -59 -52 -125 -110 -66 -58
-122 -107 -125 -110 -11 -11 -110 -99 -180 -160 -70 -61 -169 -149 -180 -160
-3 -3 -43 -39 -90 -80 -47 -41 -87 -77 -90 -80 -3 -3 -77 -68 -164 -145 -88
-77 -167 -147 -176 -155 -10 -8 -50 -44 -90 -80 -40 -36 -78 -69 -84 -75 -6
-5 -65 -57 -131 -115 -66 -58 -122 -107 -125 -110 -11 -11 -110 -99 -180 -160
-70 -61 -169 -149 -180 -160 -3 -3 -43 -39 -90 -80 -47 -41 -101 -89 -120
-106 -19 -17 -80 -71 -135 -120 -56 -49 -134 -118 -174 -154 -41 -36 -83 -73
-95 -83 -12 -10 -37 -33 -56 -50 -19 -18 -89 -79 -155 -137 -66 -58 -122 -107
-125 -110 -3 -3 -28 -25 -55 -50 -165 -147 -209 -185 -216 -188 -9 -4 -629
616 -629 629 0 5 46 59 296 344 28 33 89 103 135 155 45 52 96 111 113 130 17
19 60 69 96 110 36 41 79 91 96 110 29 33 171 196 218 250 12 14 88 102 170
195 82 94 160 184 175 200 14 17 55 64 91 105 36 41 77 88 91 105 15 16 78 89
140 160 63 72 124 141 135 155 30 34 175 201 244 280 77 88 608 697 684 785
34 39 63 72 66 75 3 3 34 39 70 80 36 41 67 77 70 80 3 3 47 52 97 110 189
220 308 299 503 334 14 3 77 3 140 1 91 -3 129 -9 180 -28z m-3727 -4283 c161
-163 293 -299 294 -302 1 -4 -29 -33 -66 -65 -37 -32 -81 -70 -97 -85 -16 -14
-49 -44 -74 -66 -25 -23 -79 -70 -120 -106 -41 -36 -102 -90 -135 -120 -105
-94 -215 -192 -345 -305 -69 -60 -127 -112 -130 -115 -10 -10 -106 -95 -180
-160 -70 -61 -169 -149 -180 -160 -3 -3 -39 -34 -80 -70 -41 -36 -82 -72 -90
-80 -8 -8 -69 -62 -135 -120 -66 -57 -145 -127 -175 -155 -30 -27 -104 -93
-164 -145 -60 -52 -118 -104 -130 -115 -12 -11 -55 -49 -96 -85 -41 -36 -77
-67 -80 -70 -3 -3 -43 -39 -90 -80 -47 -41 -87 -77 -90 -80 -45 -47 -164 -139
-173 -133 -15 9 -261 262 -265 272 -2 6 72 95 202 241 17 19 60 69 96 110 36
41 67 77 70 80 3 3 34 39 70 80 36 41 67 77 70 80 3 3 30 34 60 70 30 35 61
71 68 78 7 8 70 80 140 161 69 80 129 148 132 151 3 3 32 37 66 75 127 146
628 722 658 755 17 19 60 69 96 110 36 41 70 80 75 86 6 6 62 70 125 143 63
73 127 147 143 165 15 17 71 81 125 143 53 62 101 113 105 113 5 0 140 -133
300 -296z m-2691 -2715 c65 -67 118 -125 116 -129 -2 -5 -32 -34 -68 -66 -36
-31 -84 -74 -107 -95 -24 -20 -43 -43 -43 -50 0 -7 31 -44 68 -83 51 -53 71
-81 76 -108 11 -59 -9 -112 -56 -152 -36 -32 -48 -36 -95 -36 -30 0 -67 7 -82
15 -33 17 -485 476 -512 520 -27 42 -24 100 6 152 32 53 69 73 135 73 64 0 80
-9 151 -81 32 -33 64 -59 72 -59 7 0 22 10 33 23 128 150 170 197 178 197 5 0
63 -55 128 -121z"/>
<path d="M7230 3749 c-123 -24 -242 -56 -295 -78 -158 -67 -332 -171 -414
-246 -20 -19 -48 -43 -63 -55 -47 -36 -181 -203 -230 -286 -122 -208 -172
-350 -203 -578 -19 -137 -19 -243 0 -371 33 -223 85 -374 194 -555 141 -236
364 -440 611 -557 146 -70 258 -102 440 -129 123 -17 199 -17 335 1 189 25
293 55 445 128 236 113 447 298 587 516 47 73 133 242 133 262 0 8 4 19 8 25
5 5 14 29 21 54 8 25 17 56 21 70 26 82 50 261 50 368 0 552 -317 1061 -813
1303 -125 61 -235 96 -392 124 -89 16 -361 19 -435 4z m495 -344 c177 -46 364
-153 495 -285 164 -164 300 -431 313 -610 2 -38 15 -32 -128 -61 -53 -11 -167
-44 -200 -58 -158 -67 -332 -171 -414 -246 -20 -19 -48 -43 -62 -54 -32 -25
-154 -169 -196 -231 -67 -99 -122 -209 -171 -340 -22 -58 -60 -214 -64 -265
-5 -48 -34 -48 -208 7 -110 34 -255 112 -345 187 -61 51 -179 177 -217 233
-87 129 -145 271 -182 446 -7 37 3 52 36 52 17 0 49 5 72 11 22 6 59 15 81 21
486 128 885 527 1013 1013 6 22 15 59 21 81 6 23 11 55 11 71 0 56 21 60 145
28z m-468 -30 c-18 -125 -104 -316 -204 -449 -153 -204 -374 -351 -623 -412
-30 -7 -61 -13 -67 -14 -24 0 -11 79 32 205 65 188 219 394 394 525 78 59 221
132 311 159 19 6 49 15 65 20 17 5 45 10 64 10 l34 1 -6 -45z m1270 -1279 c-7
-50 -47 -173 -83 -254 -64 -146 -235 -347 -373 -441 -72 -49 -195 -112 -266
-136 -55 -19 -153 -44 -172 -45 -24 0 -11 79 32 205 64 186 218 394 387 520
82 61 232 139 318 164 19 6 49 15 65 20 17 5 45 10 64 10 l34 1 -6 -44z"/>
</g>
</svg>
